<svg xmlns="http://www.w3.org/2000/svg" width="640" height="328" viewBox="0 0 640 328" role="img" aria-label="LEAPP Parity — ileapp vs vleapp (26/77 same)">
  <rect width="100%" height="100%" fill="#0d1117" rx="8"/>
  <text x="16" y="24" font-family="system-ui,sans-serif" font-size="14" font-weight="600" fill="#e6edf3">LEAPP Parity — ileapp vs vleapp (26/77 same)</text>
  <rect x="16" y="52" width="205" height="28" fill="#2ea043" rx="4"><title>Same: 26</title></rect><rect x="221" y="52" width="86" height="28" fill="#d29922" rx="4"><title>Changed: 11</title></rect><rect x="307" y="52" width="15" height="28" fill="#f85149" rx="4"><title>Missing: 2</title></rect><rect x="322" y="52" width="55" height="28" fill="#a371f7" rx="4"><title>Extra: 7</title></rect><rect x="377" y="52" width="244" height="28" fill="#58a6ff" rx="4"><title>Repo-specific: 31</title></rect>
  <g transform="translate(16,96)"><rect width="12" height="12" fill="#2ea043" rx="2"/><text x="20" y="11" font-family="system-ui,sans-serif" font-size="13" fill="#e6edf3">Same: 26</text></g><g transform="translate(16,132)"><rect width="12" height="12" fill="#d29922" rx="2"/><text x="20" y="11" font-family="system-ui,sans-serif" font-size="13" fill="#e6edf3">Changed: 11</text></g><g transform="translate(16,168)"><rect width="12" height="12" fill="#f85149" rx="2"/><text x="20" y="11" font-family="system-ui,sans-serif" font-size="13" fill="#e6edf3">Missing: 2</text></g><g transform="translate(16,204)"><rect width="12" height="12" fill="#a371f7" rx="2"/><text x="20" y="11" font-family="system-ui,sans-serif" font-size="13" fill="#e6edf3">Extra: 7</text></g><g transform="translate(16,240)"><rect width="12" height="12" fill="#58a6ff" rx="2"/><text x="20" y="11" font-family="system-ui,sans-serif" font-size="13" fill="#e6edf3">Repo-specific: 31</text></g><g transform="translate(16,276)"><rect width="12" height="12" fill="#8b949e" rx="2"/><text x="20" y="11" font-family="system-ui,sans-serif" font-size="13" fill="#e6edf3">Parse errors: 0</text></g>
</svg>
